<?xml version="1.0" encoding="utf-8"?>
<!-- Generator: Adobe Illustrator 16.0.0, SVG Export Plug-In . SVG Version: 6.00 Build 0)  -->
<!DOCTYPE svg PUBLIC "-//W3C//DTD SVG 1.1//EN" "http://www.w3.org/Graphics/SVG/1.1/DTD/svg11.dtd">
<svg version="1.1" xmlns="http://www.w3.org/2000/svg" xmlns:xlink="http://www.w3.org/1999/xlink" x="0px" y="0px" width="28px"
	 height="28px" viewBox="0 0 28 28" enable-background="new 0 0 28 28" xml:space="preserve">
<g id="Layer_1">
</g>
<g id="Layer_2">
</g>
<g id="Layer_3">
</g>
<g id="Layer_4">
</g>
<g id="Layer_5">
	<g>
		
			<line fill="none" stroke="#1D589E" stroke-width="1.5" stroke-linecap="round" stroke-miterlimit="10" x1="13.864" y1="17.816" x2="8.184" y2="12.136"/>
		
			<line fill="none" stroke="#1D589E" stroke-width="1.5" stroke-linecap="round" stroke-miterlimit="10" x1="14.184" y1="17.816" x2="19.864" y2="12.136"/>
	</g>
	<g>
		<path fill="#1D589E" d="M14.024,0.982c7.165,0,12.995,5.83,12.995,12.995c0,7.165-5.83,12.994-12.995,12.994
			S1.029,21.142,1.029,13.977C1.029,6.812,6.859,0.982,14.024,0.982 M14.024-0.018c-7.729,0-13.995,6.266-13.995,13.995
			s6.266,13.994,13.995,13.994c7.729,0,13.995-6.265,13.995-13.994S21.752-0.018,14.024-0.018L14.024-0.018z"/>
	</g>
</g>
</svg>
